HIERARCHY
ROOT newVegas:Hips
{
	OFFSET 0.000000 96.479958 0.000000
	CHANNELS 6 Xposition Yposition Zposition Xrotation Yrotation Zrotation
	JOINT newVegas:Pelvis
	{
		OFFSET 0.000000 0.000000 0.000000
		CHANNELS 3 Xrotation Yrotation Zrotation
		JOINT newVegas:LeftUpLeg
		{
			OFFSET 18.735201 -5.666702 -4.541200
			CHANNELS 3 Xrotation Yrotation Zrotation
			JOINT newVegas:LeftLeg
			{
				OFFSET -0.021200 -31.938179 0.493100
				CHANNELS 3 Xrotation Yrotation Zrotation
				JOINT newVegas:LeftFoot
				{
					OFFSET 0.021200 -31.938179 -4.336299
					CHANNELS 3 Xrotation Yrotation Zrotation
					JOINT newVegas:LeftToeBase
					{
						OFFSET 0.943001 -26.722000 15.023500
						CHANNELS 3 Xrotation Yrotation Zrotation
						End Site
						{
							OFFSET 0.000000 30.670183 0.000000
						}
					}
				}
				JOINT newVegas:Left_PantLeg
				{
					OFFSET 0.663870 -9.044666 -1.108900
					CHANNELS 3 Xrotation Yrotation Zrotation
					End Site
					{
						OFFSET 1.415995 20.635357 0.000000
					}
				}
			}
		}
		JOINT newVegas:RightUpLeg
		{
			OFFSET -18.735201 -5.666702 -4.541200
			CHANNELS 3 Xrotation Yrotation Zrotation
			JOINT newVegas:RightLeg
			{
				OFFSET 0.018946 -31.938133 0.493100
				CHANNELS 3 Xrotation Yrotation Zrotation
				JOINT newVegas:RightFoot
				{
					OFFSET -0.018946 -31.938126 -4.336299
					CHANNELS 3 Xrotation Yrotation Zrotation
					JOINT newVegas:RightToeBase
					{
						OFFSET -0.943001 -26.722004 15.023500
						CHANNELS 3 Xrotation Yrotation Zrotation
						End Site
						{
							OFFSET 0.000000 30.670187 0.000000
						}
					}
				}
				JOINT newVegas:Right_PantLeg
				{
					OFFSET -0.661674 -9.044716 -1.108900
					CHANNELS 3 Xrotation Yrotation Zrotation
					End Site
					{
						OFFSET -1.415958 20.635269 0.000000
					}
				}
			}
		}
	}
	JOINT newVegas:Spine
	{
		OFFSET 0.000000 10.199997 -0.299500
		CHANNELS 3 Xrotation Yrotation Zrotation
		JOINT newVegas:Spine1
		{
			OFFSET 0.000000 11.900002 -1.516600
			CHANNELS 3 Xrotation Yrotation Zrotation
			JOINT newVegas:Spine2
			{
				OFFSET 0.000000 13.600006 -2.842500
				CHANNELS 3 Xrotation Yrotation Zrotation
				JOINT newVegas:Neck
				{
					OFFSET 0.000000 9.624100 -2.890100
					CHANNELS 3 Xrotation Yrotation Zrotation
					JOINT newVegas:Head
					{
						OFFSET 0.000000 14.068802 -1.351900
						CHANNELS 3 Xrotation Yrotation Zrotation
						JOINT newVegas:Hair_Back
						{
							OFFSET 0.000000 3.231903 -17.524799
							CHANNELS 3 Xrotation Yrotation Zrotation
							End Site
							{
								OFFSET 0.000000 19.849884 0.000000
							}
						}
						JOINT newVegas:Hair_Front
						{
							OFFSET 0.000000 31.260406 4.573800
							CHANNELS 3 Xrotation Yrotation Zrotation
							JOINT newVegas:Hair_Front1
							{
								OFFSET 0.000000 2.284103 11.993300
								CHANNELS 3 Xrotation Yrotation Zrotation
								JOINT newVegas:Hair_Front2
								{
									OFFSET 0.000000 2.284103 11.993300
									CHANNELS 3 Xrotation Yrotation Zrotation
									End Site
									{
										OFFSET 0.000000 12.208862 0.000000
									}
								}
							}
						}
						JOINT newVegas:Jowel
						{
							OFFSET 0.000000 -7.458206 6.864100
							CHANNELS 3 Xrotation Yrotation Zrotation
							End Site
							{
								OFFSET 0.000000 19.849884 0.000000
							}
						}
					}
				}
				JOINT newVegas:LeftShoulder
				{
					OFFSET 15.263000 10.923401 -0.547700
					CHANNELS 3 Xrotation Yrotation Zrotation
					JOINT newVegas:LeftArm
					{
						OFFSET 25.438599 -2.830597 -13.032500
						CHANNELS 3 Xrotation Yrotation Zrotation
						JOINT newVegas:LeftForeArm
						{
							OFFSET 29.960503 0.000000 0.000000
							CHANNELS 3 Xrotation Yrotation Zrotation
							JOINT newVegas:LeftHand
							{
								OFFSET 27.849251 0.000000 0.000000
								CHANNELS 3 Xrotation Yrotation Zrotation
								JOINT newVegas:LeftHandThumb1
								{
									OFFSET 4.487587 -3.305161 6.305391
									CHANNELS 3 Xrotation Yrotation Zrotation
									JOINT newVegas:LeftHandThumb2
									{
										OFFSET 5.480453 -3.164139 3.164143
										CHANNELS 3 Xrotation Yrotation Zrotation
										JOINT newVegas:LeftHandThumb3
										{
											OFFSET 5.159721 -2.978973 2.978967
											CHANNELS 3 Xrotation Yrotation Zrotation
											End Site
											{
												OFFSET 2.494507 5.926697 1.738678
											}
										}
									}
								}
								JOINT newVegas:LeftHandIndex1
								{
									OFFSET 18.578728 -0.527832 5.208049
									CHANNELS 3 Xrotation Yrotation Zrotation
									JOINT newVegas:LeftHandIndex2
									{
										OFFSET 3.192009 0.000000 0.000000
										CHANNELS 3 Xrotation Yrotation Zrotation
										JOINT newVegas:LeftHandIndex3
										{
											OFFSET 3.835129 0.000000 0.000000
											CHANNELS 3 Xrotation Yrotation Zrotation
											End Site
											{
												OFFSET -0.034599 3.816971 0.371180
											}
										}
									}
								}
								JOINT newVegas:LeftHandMiddle1
								{
									OFFSET 18.476105 0.000000 0.000000
									CHANNELS 3 Xrotation Yrotation Zrotation
									JOINT newVegas:LeftHandMiddle2
									{
										OFFSET 3.324875 0.000000 0.000000
										CHANNELS 3 Xrotation Yrotation Zrotation
										JOINT newVegas:LeftHandMiddle3
										{
											OFFSET 4.596550 0.000000 0.000000
											CHANNELS 3 Xrotation Yrotation Zrotation
											End Site
											{
												OFFSET 0.057701 4.578827 0.399218
											}
										}
									}
								}
								JOINT newVegas:LeftHandRing1
								{
									OFFSET 17.732719 0.121887 -4.201567
									CHANNELS 3 Xrotation Yrotation Zrotation
									JOINT newVegas:LeftHandRing2
									{
										OFFSET 2.733170 0.000000 0.000000
										CHANNELS 3 Xrotation Yrotation Zrotation
										JOINT newVegas:LeftHandRing3
										{
											OFFSET 3.178268 0.000000 0.000000
											CHANNELS 3 Xrotation Yrotation Zrotation
											End Site
											{
												OFFSET 0.119102 3.170624 0.185394
											}
										}
									}
								}
								JOINT newVegas:LeftHandPinky1
								{
									OFFSET 15.989624 -0.606689 -7.535461
									CHANNELS 3 Xrotation Yrotation Zrotation
									JOINT newVegas:LeftHandPinky2
									{
										OFFSET 2.538986 0.000000 0.000000
										CHANNELS 3 Xrotation Yrotation Zrotation
										JOINT newVegas:LeftHandPinky3
										{
											OFFSET 2.593102 0.000000 0.000000
											CHANNELS 3 Xrotation Yrotation Zrotation
											End Site
											{
												OFFSET -0.150902 2.584198 0.152708
											}
										}
									}
								}
							}
							JOINT newVegas:Left_Sleeve
							{
								OFFSET 0.267448 -0.649796 0.577675
								CHANNELS 3 Xrotation Yrotation Zrotation
								End Site
								{
									OFFSET 0.000000 15.991241 0.000000
								}
							}
							JOINT newVegas:Left_CapeC
							{
								OFFSET 15.715958 -8.608795 -6.935905
								CHANNELS 3 Xrotation Yrotation Zrotation
								JOINT newVegas:Left_CapeC1
								{
									OFFSET 0.000000 -8.688499 0.000000
									CHANNELS 3 Xrotation Yrotation Zrotation
									End Site
									{
										OFFSET 0.000000 8.688499 0.000000
									}
								}
							}
						}
						JOINT newVegas:Left_CapeB
						{
							OFFSET 26.118385 -8.608795 -7.079235
							CHANNELS 3 Xrotation Yrotation Zrotation
							JOINT newVegas:Left_CapeB1
							{
								OFFSET 0.000000 -8.688499 0.000000
								CHANNELS 3 Xrotation Yrotation Zrotation
								End Site
								{
									OFFSET 0.000000 8.688499 0.000000
								}
							}
						}
						JOINT newVegas:Left_CapeA
						{
							OFFSET 5.115639 -8.608795 -10.395809
							CHANNELS 3 Xrotation Yrotation Zrotation
							JOINT newVegas:Left_CapeA1
							{
								OFFSET 0.000000 -8.688499 0.000000
								CHANNELS 3 Xrotation Yrotation Zrotation
								End Site
								{
									OFFSET 0.000000 8.688499 0.000000
								}
							}
						}
					}
				}
				JOINT newVegas:RightShoulder
				{
					OFFSET -15.263000 10.923401 -0.547700
					CHANNELS 3 Xrotation Yrotation Zrotation
					JOINT newVegas:RightArm
					{
						OFFSET -25.438599 -2.830597 -13.032500
						CHANNELS 3 Xrotation Yrotation Zrotation
						JOINT newVegas:RightForeArm
						{
							OFFSET -29.960503 0.000000 0.000000
							CHANNELS 3 Xrotation Yrotation Zrotation
							JOINT newVegas:RightHand
							{
								OFFSET -27.849251 0.000000 0.000000
								CHANNELS 3 Xrotation Yrotation Zrotation
								JOINT newVegas:RightHandThumb1
								{
									OFFSET -4.487587 -3.305161 6.305391
									CHANNELS 3 Xrotation Yrotation Zrotation
									JOINT newVegas:RightHandThumb2
									{
										OFFSET -5.480453 -3.164139 3.164143
										CHANNELS 3 Xrotation Yrotation Zrotation
										JOINT newVegas:RightHandThumb3
										{
											OFFSET -5.159721 -2.978973 2.978967
											CHANNELS 3 Xrotation Yrotation Zrotation
											End Site
											{
												OFFSET -2.494507 5.926697 1.738678
											}
										}
									}
								}
								JOINT newVegas:RightHandIndex1
								{
									OFFSET -18.578728 -0.527832 5.208049
									CHANNELS 3 Xrotation Yrotation Zrotation
									JOINT newVegas:RightHandIndex2
									{
										OFFSET -3.192009 0.000000 0.000000
										CHANNELS 3 Xrotation Yrotation Zrotation
										JOINT newVegas:RightHandIndex3
										{
											OFFSET -3.835129 0.000000 0.000000
											CHANNELS 3 Xrotation Yrotation Zrotation
											End Site
											{
												OFFSET 0.034599 3.816971 0.371180
											}
										}
									}
								}
								JOINT newVegas:RightHandMiddle1
								{
									OFFSET -18.476105 0.000000 0.000000
									CHANNELS 3 Xrotation Yrotation Zrotation
									JOINT newVegas:RightHandMiddle2
									{
										OFFSET -3.324875 0.000000 0.000000
										CHANNELS 3 Xrotation Yrotation Zrotation
										JOINT newVegas:RightHandMiddle3
										{
											OFFSET -4.596550 0.000000 0.000000
											CHANNELS 3 Xrotation Yrotation Zrotation
											End Site
											{
												OFFSET -0.057701 4.578827 0.399218
											}
										}
									}
								}
								JOINT newVegas:RightHandRing1
								{
									OFFSET -17.732719 0.121887 -4.201567
									CHANNELS 3 Xrotation Yrotation Zrotation
									JOINT newVegas:RightHandRing2
									{
										OFFSET -2.733170 0.000000 0.000000
										CHANNELS 3 Xrotation Yrotation Zrotation
										JOINT newVegas:RightHandRing3
										{
											OFFSET -3.178268 0.000000 0.000000
											CHANNELS 3 Xrotation Yrotation Zrotation
											End Site
											{
												OFFSET -0.119102 3.170624 0.185394
											}
										}
									}
								}
								JOINT newVegas:RightHandPinky1
								{
									OFFSET -15.989624 -0.606689 -7.535461
									CHANNELS 3 Xrotation Yrotation Zrotation
									JOINT newVegas:RightHandPinky2
									{
										OFFSET -2.538986 0.000000 0.000000
										CHANNELS 3 Xrotation Yrotation Zrotation
										JOINT newVegas:RightHandPinky3
										{
											OFFSET -2.593102 0.000000 0.000000
											CHANNELS 3 Xrotation Yrotation Zrotation
											End Site
											{
												OFFSET 0.150902 2.584198 0.152708
											}
										}
									}
								}
							}
							JOINT newVegas:Right_CapeC
							{
								OFFSET -15.715958 -8.608795 -6.935905
								CHANNELS 3 Xrotation Yrotation Zrotation
								JOINT newVegas:Right_CapeC1
								{
									OFFSET 0.000000 -8.688499 0.000000
									CHANNELS 3 Xrotation Yrotation Zrotation
									End Site
									{
										OFFSET 0.000000 8.688499 0.000000
									}
								}
							}
							JOINT newVegas:Right_Sleeve
							{
								OFFSET -0.267448 -0.649994 0.577675
								CHANNELS 3 Xrotation Yrotation Zrotation
								End Site
								{
									OFFSET 0.000000 15.991302 0.000000
								}
							}
						}
						JOINT newVegas:Right_CapeA
						{
							OFFSET -5.115540 -8.608795 -10.395824
							CHANNELS 3 Xrotation Yrotation Zrotation
							JOINT newVegas:Right_CapeA1
							{
								OFFSET 0.000000 -8.688499 0.000000
								CHANNELS 3 Xrotation Yrotation Zrotation
								End Site
								{
									OFFSET 0.000000 8.688499 0.000000
								}
							}
						}
						JOINT newVegas:Right_CapeB
						{
							OFFSET -26.118187 -8.608795 -7.079266
							CHANNELS 3 Xrotation Yrotation Zrotation
							JOINT newVegas:Right_CapeB1
							{
								OFFSET 0.000000 -8.688499 0.000000
								CHANNELS 3 Xrotation Yrotation Zrotation
								End Site
								{
									OFFSET 0.000000 8.688499 0.000000
								}
							}
						}
					}
				}
				JOINT newVegas:Left_Collar
				{
					OFFSET 18.625099 8.655502 8.828100
					CHANNELS 3 Xrotation Yrotation Zrotation
					JOINT newVegas:Left_Collar1
					{
						OFFSET 14.783401 10.540405 -1.259500
						CHANNELS 3 Xrotation Yrotation Zrotation
						End Site
						{
							OFFSET 0.000000 18.199875 0.000000
						}
					}
				}
				JOINT newVegas:Collar_Back
				{
					OFFSET 0.000000 15.630707 -20.132601
					CHANNELS 3 Xrotation Yrotation Zrotation
					End Site
					{
						OFFSET 0.000000 22.523010 0.000000
					}
				}
				JOINT newVegas:Left_Peck
				{
					OFFSET 17.239599 -5.132599 25.482599
					CHANNELS 3 Xrotation Yrotation Zrotation
					End Site
					{
						OFFSET 0.000000 22.523010 0.000000
					}
				}
				JOINT newVegas:Right_Peck
				{
					OFFSET -17.239599 -5.132202 25.482599
					CHANNELS 3 Xrotation Yrotation Zrotation
					End Site
					{
						OFFSET 0.000000 22.523010 0.000000
					}
				}
				JOINT newVegas:Right_Collar
				{
					OFFSET -18.625099 8.655792 8.828100
					CHANNELS 3 Xrotation Yrotation Zrotation
					JOINT newVegas:Right_Collar1
					{
						OFFSET -14.783401 10.539993 -1.259500
						CHANNELS 3 Xrotation Yrotation Zrotation
						End Site
						{
							OFFSET 0.000000 18.199631 0.000000
						}
					}
				}
			}
		}
		JOINT newVegas:Belly
		{
			OFFSET 0.000000 -6.540398 9.014299
			CHANNELS 3 Xrotation Yrotation Zrotation
			End Site
			{
				OFFSET 0.000000 11.566666 0.000000
			}
		}
	}
	JOINT newVegas:ElvisFacialAnim_Joint
	{
		OFFSET 1.000000 -95.330101 -8.825800
		CHANNELS 3 Xrotation Yrotation Zrotation
		End Site
		{
			OFFSET 0.000000 35.315800 0.000000
		}
	}
}
MOTION
Frames: 4
Frame Time: 0.016667
0.761778 95.252869 4.342113 -4.056679 6.146935 -1.685399 0.000000 0.000000 0.000000 -6.314142 9.856434 12.844458 17.339818 -7.009182 0.228881 -8.259190 1.149147 -8.070094 0.000000 -0.000000 -0.000000 -0.000000 -0.000002 -0.000000 -3.371375 -5.897517 0.966168 12.485369 3.400913 -0.638162 -4.917840 0.005346 0.732136 0.000000 0.000000 0.000000 -0.000001 -0.000000 -0.000001 4.902943 -0.340363 1.141115 5.814411 -0.121263 1.891506 -4.300225 -0.608023 -1.115061 0.268313 -0.226332 0.191237 0.268356 -0.226332 0.191243 0.000000 0.000000 -0.000000 0.268299 -0.226336 0.191241 0.268441 -0.226329 0.191240 -0.000000 -0.000001 -0.000000 0.000000 0.000000 -0.000000 1.687484 -7.781254 -3.494999 -0.672287 -2.004150 -76.954157 6.346023 -10.905151 1.751687 -0.215844 -0.744253 3.407825 -3.779738 8.457882 12.348750 7.439533 11.617318 -1.292653 -0.000000 -0.000002 -0.000005 2.384565 3.620169 -6.815684 -0.007826 0.227204 -17.103504 0.000003 -0.000000 -0.000000 -1.935777 5.644687 -11.387015 0.112459 0.632658 -24.767755 -0.000001 0.000000 0.000000 -4.873127 10.020109 -7.875478 -0.031551 0.293305 -30.086218 0.000001 -0.000002 0.000003 -6.437543 11.282634 -19.770949 0.029277 0.211138 -30.857634 0.000001 -0.000002 -0.000002 0.000000 0.000001 0.000001 0.000000 0.000001 0.000001 0.000000 0.000001 0.000001 0.000000 0.000000 0.000000 0.000000 0.000000 0.000000 0.000000 0.000000 0.000000 0.000000 -0.000000 -0.000000 2.069734 10.207993 4.096301 1.439769 3.704601 75.273917 15.720239 15.338361 -4.555483 -4.669807 -0.553084 -0.689260 -0.464221 -8.992532 -6.084847 7.444314 -11.614497 1.291691 -0.000000 -0.000002 -0.000001 2.415135 -3.647887 8.343600 -0.045907 -0.188504 18.630266 0.000000 -0.000000 0.000000 -1.985490 -5.700682 13.541329 0.094745 -0.637352 26.924150 -0.000003 0.000000 0.000000 -4.982048 -10.062142 10.706129 -0.023912 -0.331174 32.937395 -0.000001 0.000004 0.000003 -6.468521 -11.288233 23.243661 0.067361 -0.216397 34.333257 -0.000001 0.000005 -0.000000 0.000000 -0.000000 -0.000000 0.000000 -0.000001 0.000000 0.000000 -0.000000 0.000000 0.000000 0.000000 -0.000001 0.000000 0.000000 -0.000000 0.000000 0.000000 -0.000001 0.000000 -0.000000 -0.000000 0.000000 0.000000 0.000000 0.000000 0.000000 0.000000 0.000000 0.000000 0.000000 0.000000 0.000000 0.000000 0.000000 0.000000 0.000000 0.000000 0.000000 0.000000 0.000000 0.000000 0.000000 -0.000000 -0.000000 -0.000000 0.000000 0.000000 0.000000 
0.886385 95.247040 4.400477 -4.001056 6.027337 -1.697300 0.000000 0.000000 0.000000 -6.274896 9.839391 12.717753 17.441684 -6.886902 0.246232 -8.419838 1.199116 -7.982154 -0.000000 -0.000000 -0.000000 0.000000 -0.000001 -0.000000 -3.404367 -5.902798 0.856331 12.483274 3.426575 -0.638522 -4.944362 0.054919 0.837010 -0.000000 0.000001 0.000000 -0.000000 0.000000 -0.000001 4.885543 -0.318570 1.099080 5.821197 -0.106785 1.917306 -4.288224 -0.596360 -1.086638 0.273643 -0.226919 0.180715 0.273695 -0.226921 0.180718 -0.000000 0.000001 -0.000000 0.273835 -0.226929 0.180720 0.273620 -0.226913 0.180716 -0.000000 0.000000 0.000000 -0.000000 0.000001 -0.000000 1.710092 -7.716843 -3.464171 -0.640207 -1.994684 -77.013163 6.401013 -10.925482 1.756954 -0.211699 -0.779958 3.402860 -3.770344 8.494632 12.357302 7.410602 11.555752 -1.302241 -0.000000 -0.000003 -0.000005 2.365561 3.558899 -6.752272 -0.007895 0.227183 -17.059753 0.000001 -0.000000 -0.000000 -1.944288 5.590015 -11.373881 0.112399 0.632608 -24.756936 0.000001 -0.000001 -0.000001 -4.874993 9.973654 -7.908324 -0.031573 0.293453 -30.105223 0.000000 -0.000000 -0.000002 -6.427772 11.248486 -19.851994 0.029337 0.211342 -30.908771 -0.000000 -0.000002 -0.000001 0.000000 -0.000000 0.000001 0.000000 -0.000000 0.000001 0.000000 -0.000000 0.000001 0.000001 0.000000 0.000000 0.000001 0.000000 -0.000001 0.000001 0.000000 0.000000 0.000001 -0.000000 0.000000 2.108045 10.186224 3.925884 1.704443 4.137059 75.329419 15.726312 16.016508 -5.167393 -4.943586 -0.670161 -0.596689 -0.464259 -8.992508 -6.084816 7.444332 -11.614554 1.291606 -0.000001 -0.000001 0.000001 2.415116 -3.647891 8.343640 -0.045914 -0.188497 18.630258 -0.000001 0.000001 0.000000 -1.985536 -5.700724 13.541266 0.094745 -0.637331 26.924220 -0.000001 -0.000001 -0.000001 -4.982038 -10.062128 10.706135 -0.023991 -0.331199 32.937351 0.000002 -0.000001 0.000004 -6.468520 -11.288266 23.243632 0.067332 -0.216352 34.333278 0.000002 -0.000000 -0.000002 0.000001 -0.000001 0.000001 0.000001 0.000000 0.000000 0.000001 -0.000000 0.000000 0.000001 0.000001 -0.000000 0.000001 0.000001 -0.000000 0.000001 0.000001 -0.000000 0.000001 0.000001 -0.000000 0.000000 0.000000 0.000000 0.000000 0.000000 0.000000 0.000000 0.000000 0.000000 0.000000 0.000000 0.000000 0.000000 0.000000 0.000000 0.000000 0.000000 0.000000 0.000000 0.000000 0.000000 0.000000 -0.000000 0.000000 0.000000 0.000000 0.000000 
1.025891 95.244011 4.483181 -3.998713 5.921756 -1.681329 0.000000 0.000000 0.000000 -6.143273 9.885278 12.566850 17.495316 -6.809851 0.256150 -8.581194 1.228825 -7.876195 -0.000000 0.000000 -0.000000 -0.000000 -0.000001 -0.000000 -3.392239 -5.939929 0.724015 12.545484 3.557930 -0.656508 -5.028545 0.055180 0.942841 -0.000000 0.000000 -0.000000 -0.000000 -0.000000 -0.000000 4.952760 -0.305433 1.030119 5.780768 -0.096299 1.938783 -4.313797 -0.587796 -1.059323 0.281626 -0.230330 0.176101 0.281625 -0.230333 0.176101 -0.000000 0.000000 0.000000 0.281556 -0.230333 0.176100 0.281701 -0.230334 0.176101 -0.000000 0.000000 0.000000 -0.000000 0.000000 -0.000000 1.725177 -7.668270 -3.419643 -0.663468 -1.883002 -77.088971 6.401421 -10.863921 1.697805 -0.197289 -0.886261 3.455021 -3.774909 8.496040 12.356103 7.405248 11.551458 -1.297590 0.000000 -0.000000 -0.000003 2.389994 3.891196 -6.747927 -0.007883 0.227175 -17.044179 0.000001 0.000000 0.000001 -1.920714 5.826084 -11.342084 0.112325 0.632553 -24.738928 0.000000 -0.000000 0.000003 -4.854178 10.148926 -7.869556 -0.031519 0.293370 -30.088114 -0.000000 -0.000001 -0.000001 -6.388002 11.353692 -19.828785 0.029400 0.211309 -30.898673 0.000001 0.000000 -0.000004 0.000000 0.000000 -0.000000 0.000000 0.000000 -0.000000 0.000000 0.000000 -0.000001 0.000000 -0.000001 0.000001 0.000000 -0.000001 -0.000000 0.000000 -0.000001 0.000001 0.000000 -0.000001 0.000000 2.143770 10.163300 3.767667 1.868292 4.550494 75.382045 15.821524 16.571746 -5.763650 -5.230330 -0.788514 -0.468329 -0.464251 -8.992505 -6.084828 7.444314 -11.614518 1.291615 0.000001 -0.000002 -0.000001 2.415138 -3.647879 8.343606 -0.045885 -0.188528 18.630229 0.000000 -0.000000 -0.000001 -1.985479 -5.700721 13.541303 0.094758 -0.637298 26.924182 0.000002 -0.000001 -0.000001 -4.982014 -10.062150 10.706088 -0.023975 -0.331198 32.937436 0.000003 0.000001 -0.000002 -6.468522 -11.288284 23.243634 0.067385 -0.216340 34.333319 0.000001 -0.000003 -0.000004 -0.000000 -0.000001 -0.000000 -0.000000 -0.000000 0.000000 -0.000000 -0.000001 -0.000000 -0.000000 0.000001 0.000001 -0.000000 0.000001 0.000001 -0.000000 0.000001 0.000001 -0.000000 0.000001 0.000001 -0.000000 -0.000000 0.000000 -0.000000 -0.000000 0.000000 -0.000000 -0.000000 0.000000 -0.000000 -0.000000 0.000000 -0.000000 -0.000000 0.000000 -0.000000 -0.000000 0.000000 -0.000000 -0.000000 0.000000 0.000000 0.000000 -0.000000 0.000000 0.000000 0.000000 
1.182195 95.233978 4.556633 -3.911831 5.823209 -1.691334 -0.000001 0.000000 -0.000000 -6.130420 9.825689 12.396127 17.625325 -6.651198 0.289423 -8.766220 1.271252 -7.775106 0.000000 0.000001 -0.000000 -0.000001 -0.000001 -0.000000 -3.444181 -5.961343 0.585161 12.553999 3.616817 -0.658120 -5.079543 0.063494 1.069166 0.000000 -0.000000 0.000000 -0.000000 0.000000 -0.000000 4.912078 -0.295836 1.026511 5.773950 -0.091456 1.936357 -4.297130 -0.582283 -1.054468 0.277606 -0.230496 0.172067 0.277607 -0.230498 0.172067 0.000000 -0.000000 0.000000 0.277537 -0.230499 0.172067 0.277752 -0.230496 0.172068 0.000000 -0.000000 -0.000000 0.000000 -0.000000 0.000000 1.736349 -7.615505 -3.398643 -0.683186 -1.787388 -77.118525 6.429660 -10.835446 1.658447 -0.182041 -0.982543 3.540811 -3.774019 8.519682 12.359903 7.396399 11.544276 -1.289717 -0.000001 -0.000001 -0.000001 2.376640 3.922612 -6.679035 -0.007976 0.227123 -16.995717 0.000000 0.000000 0.000000 -1.916468 5.871970 -11.333393 0.112277 0.632529 -24.733633 -0.000000 -0.000000 0.000000 -4.835767 10.220194 -7.914577 -0.031530 0.293549 -30.121797 0.000000 0.000001 -0.000001 -6.320917 11.443583 -19.933934 0.029593 0.211614 -30.970444 0.000000 -0.000001 -0.000003 0.000001 0.000000 -0.000000 0.000001 0.000000 -0.000000 0.000001 0.000000 -0.000000 -0.000000 -0.000001 0.000000 0.000000 -0.000001 0.000000 -0.000000 -0.000001 0.000000 0.000000 -0.000001 0.000000 2.177286 10.135588 3.620688 1.959051 4.933511 75.428935 15.740924 17.064213 -6.286259 -5.433538 -0.728878 -0.390457 -0.464232 -8.992523 -6.084876 7.444297 -11.614513 1.291612 0.000001 0.000003 -0.000000 2.415390 -3.653176 8.343843 -0.045934 -0.188516 18.630227 -0.000002 0.000001 0.000000 -1.985533 -5.700702 13.541239 0.094807 -0.637344 26.924227 0.000001 -0.000001 0.000000 -4.982040 -10.062145 10.706134 -0.023984 -0.331156 32.937371 -0.000002 -0.000003 0.000002 -6.468541 -11.288243 23.243697 0.067340 -0.216373 34.333291 -0.000000 -0.000000 -0.000000 0.000002 -0.000000 -0.000000 0.000001 -0.000001 0.000000 0.000002 0.000000 -0.000001 -0.000000 -0.000001 -0.000001 -0.000000 0.000000 0.000000 -0.000000 -0.000001 -0.000001 -0.000000 -0.000000 0.000000 0.000000 0.000000 -0.000000 0.000000 0.000000 -0.000000 0.000000 0.000000 -0.000000 0.000000 0.000000 -0.000000 0.000000 0.000000 -0.000000 0.000000 0.000000 -0.000000 0.000000 0.000000 -0.000000 0.000000 0.000000 -0.000000 -0.000001 0.000000 -0.000000 
